<?xml version="1.0" standalone="no"?>
<!DOCTYPE svg PUBLIC "-//W3C//DTD SVG 20010904//EN"
 "http://www.w3.org/TR/2001/REC-SVG-20010904/DTD/svg10.dtd">
<svg version="1.0" xmlns="http://www.w3.org/2000/svg"
 width="700.000000pt" height="700.000000pt" viewBox="0 0 700.000000 700.000000"
 preserveAspectRatio="xMidYMid meet">
<metadata>
Created by potrace 1.11, written by Peter Selinger 2001-2013
</metadata>
<g transform="translate(0.000000,700.000000) scale(0.100000,-0.100000)"
fill="#000000" stroke="none">
<path d="M4020 6948 c-6 -24 -20 -74 -31 -113 -11 -38 -21 -79 -24 -90 -2 -11
-47 -180 -100 -375 -79 -296 -141 -526 -160 -600 -3 -8 -16 -58 -30 -110 -14
-52 -27 -103 -30 -112 -2 -9 -35 -135 -74 -280 -39 -145 -94 -348 -122 -453
-28 -104 -57 -212 -65 -240 -8 -27 -54 -201 -103 -385 -49 -184 -99 -371 -111
-415 -12 -44 -30 -111 -40 -150 -11 -38 -26 -97 -35 -130 -9 -33 -18 -67 -20
-75 -2 -8 -11 -40 -19 -70 -45 -166 -265 -989 -341 -1275 -8 -27 -28 -102 -45
-165 -17 -63 -52 -191 -76 -285 -52 -194 -67 -252 -124 -460 -22 -82 -42 -158
-45 -167 -2 -10 -31 -120 -65 -245 -34 -126 -63 -235 -65 -243 -9 -36 -56
-209 -69 -252 -8 -27 -12 -48 -10 -48 2 0 54 -14 116 -31 62 -16 156 -41 208
-55 52 -14 118 -31 145 -39 134 -38 278 -75 281 -72 3 3 49 165 58 207 2 8 20
76 41 150 20 74 42 158 50 185 15 56 158 589 205 765 17 63 32 122 35 130 2 8
13 51 25 95 12 44 25 89 27 100 3 11 43 160 88 330 102 378 136 505 141 525 2
8 14 56 28 105 51 190 67 251 71 265 2 8 17 65 33 125 16 61 69 256 116 435
84 311 172 640 216 800 11 41 43 161 71 265 27 105 59 224 71 265 11 41 28
107 38 145 10 39 28 104 39 145 65 239 208 773 216 810 2 8 15 58 30 110 102
370 215 806 211 815 -3 9 -89 35 -123 37 -5 0 -19 5 -33 10 -14 5 -74 23 -135
39 -317 83 -422 110 -437 115 -13 4 -19 -5 -28 -38z"/>
</g>
</svg>
